Coordinates
version=1
nRows=13
nColumns=36
inDegrees=yes

Units are S.I. units (second, meters, Newtons, ...)
If the header above contains a line with 'inDegrees', this indicates whether rotational values are in degrees (yes) or radians (no).

endheader
time	pelvis_tilt	pelvis_list	pelvis_rotation	pelvis_tx	pelvis_ty	pelvis_tz	hip_flexion_r	hip_adduction_r	hip_rotation_r	knee_angle_r	knee_angle_r_beta	ankle_angle_r	subtalar_angle_r	mtp_angle_r	hip_flexion_l	hip_adduction_l	hip_rotation_l	knee_angle_l	knee_angle_l_beta	ankle_angle_l	subtalar_angle_l	mtp_angle_l	lumbar_extension	lumbar_bending	lumbar_rotation	arm_flex_r	arm_add_r	arm_rot_r	elbow_flex_r	pro_sup_r	arm_flex_l	arm_add_l	arm_rot_l	elbow_flex_l	pro_sup_l
      0.67000000	     -1.46962163	      1.52684938	     -2.96780551	      0.76805073	      0.93742552	     -0.17539724	     -7.69935462	     -2.46154098	     -7.17957327	     38.42153169	      0.67058223	     -4.16672672	    -10.15830105	     -7.17866310	     23.14886780	      3.39159513	     -9.78855524	     17.97519933	      0.31372641	     -0.33320754	    -12.59400162	     -7.17866310	     -1.57986425	     -5.08523949	     11.87456962	      5.54355242	     -3.63500238	    -12.93777732	     49.90128521	    104.24164448	    -20.69709139	     -0.25541338	    -44.30903033	     20.99645600	     96.50305406
      0.68000000	     -1.30595785	      1.94908213	     -2.87466973	      0.77993882	      0.93830573	     -0.17728531	     -5.90044683	     -3.63335571	     -7.56018528	     42.53648032	      0.74240163	     -6.37745024	    -10.80153088	     -7.18187625	     22.32963821	      4.00143741	     -9.92370024	     18.31833640	      0.31971528	      0.47216169	    -12.64301292	     -7.18187625	     -1.85327065	     -5.61565809	     11.18693351	      5.25711283	     -3.43428905	    -12.93411046	     49.25303431	    104.10228075	    -19.80797026	     -0.32365647	    -44.02090249	     21.26600970	     96.68968983
      0.69000000	     -1.38731932	      2.26238898	     -2.77388483	      0.79154778	      0.93882278	     -0.17896118	     -3.76083733	     -4.56531128	     -7.73945269	     46.53324720	      0.81215838	     -9.05817364	    -12.95700275	     -7.22043843	     21.74859925	      4.39537902	    -10.46183974	     18.60576612	      0.32473188	      1.86262997	    -11.63223531	     -7.22043843	     -1.76891285	     -5.97469710	     10.48309798	      5.02324510	     -3.33246471	    -12.62828144	     48.33379720	    103.04225570	    -18.96386210	     -0.62095763	    -42.87500105	     21.16266605	     98.09603406
      0.70000000	     -1.32474161	      2.72736764	     -2.63130278	      0.80285416	      0.93943689	     -0.18077640	     -1.74275813	     -5.75806880	     -8.07276645	     50.45895795	      0.88067495	    -10.01122100	    -13.62439910	     -7.22403718	     20.88431545	      5.07835479	    -10.66234868	     18.55469330	      0.32384049	      2.62200628	    -11.59159120	     -7.22403718	     -1.96757265	     -6.54198521	      9.71631337	      4.79098895	     -3.14817024	    -12.57268102	     47.63547621	    102.92560054	    -17.90808551	     -0.78175948	    -42.59372362	     21.51748281	     98.24504311
      0.71000000	     -1.37652393	      3.15381937	     -2.49010877	      0.81382577	      0.93990503	     -0.18244800	      0.44012376	     -6.81633056	     -8.23705087	     54.17625080	      0.94555395	    -10.41885394	    -14.65594486	     -7.22749008	     20.14962818	      5.70394539	    -10.84804406	     18.46964384	      0.32235610	      3.40237313	    -11.34524812	     -7.22749008	     -2.06631294	     -7.06803881	      8.92201508	      4.63744652	     -2.96682815	    -12.45189817	     46.79672282	    102.79581274	    -16.80366101	     -1.00072828	    -42.17670447	     21.89577923	     98.41704900
      0.72000000	     -1.59866777	      3.40972700	     -2.33740755	      0.82449225	      0.94023606	     -0.18394135	      2.83982351	     -7.55853340	     -8.25380754	     57.61096543	      1.00550103	    -10.38267812	    -16.02390036	     -7.23540674	     19.64341149	      6.08241959	    -11.14039916	     18.47278133	      0.32241086	      4.33394578	    -10.60227065	     -7.23540674	     -1.95415974	     -7.39108191	      8.06144001	      4.58747661	     -2.85265517	    -12.07607708	     45.62206193	    102.53104009	    -15.73710995	     -1.27759708	    -41.23738293	     22.19095369	     98.74788608
      0.73000000	     -1.65129698	      3.69326176	     -2.13241513	      0.83507452	      0.94092188	     -0.18550969	      5.00067689	     -8.31878129	     -8.36624942	     60.64406196	      1.05843855	     -9.75551571	    -17.13661530	     -7.23842065	     18.85065517	      6.58965772	    -11.15615279	     18.24871969	      0.31850024	      5.11089426	    -10.33960936	     -7.23842065	     -2.12248426	     -7.75442748	      7.21427551	      4.43824560	     -2.67820363	    -12.00400695	     44.83616967	    102.39293018	    -14.42882777	     -1.56103216	    -40.68868041	     22.52330187	     98.90265939
      0.74000000	     -1.90860490	      3.83472991	     -1.94276407	      0.84550208	      0.94152476	     -0.18695582	      7.39874558	     -8.82495758	     -8.38124149	     63.33216851	      1.10535486	     -8.77785738	    -18.19727854	     -7.24218370	     18.28641433	      6.91104409	    -11.17258950	     18.02092394	      0.31452446	      5.84629969	     -9.90866383	     -7.24218370	     -1.99473547	     -7.93428999	      6.36933273	      4.30731001	     -2.51955913	    -11.87585626	     43.74124523	    102.20901871	    -13.17901043	     -1.86357942	    -39.83365290	     22.83947802	     99.09792862
      0.75000000	     -2.25035786	      3.78483364	     -1.71259570	      0.85576733	      0.94223152	     -0.18834976	      9.84677816	     -8.99375255	     -8.31767640	     65.58546165	      1.14468225	     -7.61450199	    -18.65765247	     -7.25181869	     17.88329149	      6.98147889	    -11.28512437	     17.96350728	      0.31352235	      6.73135766	     -9.08510436	     -7.25181869	     -1.76193343	     -7.86783009	      5.41520188	      4.28986763	     -2.45021720	    -11.41920812	     42.37875031	    101.84277697	    -11.96379266	     -2.33693129	    -37.81172345	     22.79919956	     99.43204050
      0.76000000	     -2.36662808	      3.71758845	     -1.46691982	      0.86604553	      0.94350847	     -0.18971430	     11.93892929	     -9.10099289	     -8.28460516	     67.32813916	      1.17509771	     -6.47656107	    -19.03551881	     -7.27419414	     17.09328738	      7.10447750	    -11.14472048	     17.61536832	      0.30744618	      7.48782126	     -8.50539459	     -7.27419414	     -1.84528904	     -7.78115464	      4.63909519	      4.04239943	     -2.37455207	    -11.28066607	     41.52208973	    101.17851701	    -10.42182172	     -2.97861471	    -35.12465443	     22.40142660	     99.54798000
      0.77000000	     -2.45816911	      3.51608091	     -1.23596251	      0.87622929	      0.94502112	     -0.19102123	     13.92834497	     -8.95121267	     -8.19124952	     68.58076067	      1.19696008	     -5.85322411	    -19.50157036	     -7.27614583	     16.23672667	      7.10754111	    -10.80219548	     17.18279229	      0.29989630	      7.85504515	     -8.30988024	     -7.27614583	     -1.98100544	     -7.56821474	      3.79994737	      3.83410872	     -2.24475374	    -11.34421854	     40.64639850	    101.07683894	     -8.90238515	     -3.17942712	    -34.72433067	     22.93177063	     99.61270463
      0.78000000	     -2.61422369	      3.26948819	     -0.98912059	      0.88646893	      0.94663349	     -0.19227645	     15.88706598	     -8.68175247	     -8.08658241	     69.38932483	      1.21107218	     -5.19743495	    -19.64428302	     -7.27842129	     15.37685237	      7.06787957	    -10.41180630	     16.61127242	      0.28992140	      8.29016229	     -8.02268985	     -7.27842129	     -1.96344922	     -7.29331849	      2.92061713	      3.66353505	     -2.10004887	    -11.33843060	     39.48463721	    100.96207390	     -7.44641820	     -3.42576902	    -34.09133148	     23.43651485	     99.70448285
      0.79000000	     -2.65618308	      2.94003257	     -0.69693050	      0.89672254	      0.94850835	     -0.19352816	     17.58384392	     -8.32864226	     -8.09610777	     69.77085554	      1.21773115	     -4.10743108	    -18.70869799	     -7.28843178	     14.39764897	      6.90025242	    -10.25096556	     16.06191951	      0.28033338	      8.83545161	     -7.43888382	     -7.28843178	     -2.04980838	     -6.88759854	      1.81182481	      3.69477831	     -2.08088355	    -10.70731333	     38.01685616	    100.76930989	     -6.09313032	     -3.89473333	    -31.98579285	     23.53670273	     99.81654713
